<?xml version="1.0" encoding="utf-8"?>
<!-- Generator: Adobe Illustrator 19.0.0, SVG Export Plug-In . SVG Version: 6.00 Build 0)  -->
<svg version="1.1" id="Ebene_1" xmlns="http://www.w3.org/2000/svg" xmlns:xlink="http://www.w3.org/1999/xlink" x="0px" y="0px"
	 viewBox="0 0 265.9 152.3" style="enable-background:new 0 0 265.9 152.3;" xml:space="preserve">
<style type="text/css">
	.st0{fill:#1D1D1B;}
	.st1{fill:none;stroke:#1D1D1B;stroke-width:2;}
	.st2{clip-path:url(#SVGID_2_);fill:none;stroke:#1D1D1B;stroke-width:2;}
	.st3{clip-path:url(#SVGID_2_);fill:#1D1D1B;}
</style>
<polygon class="st0" points="71,127.4 95.1,123.2 101,89.5 131.1,84.2 134,67.5 104,72.8 106.5,58.4 141.7,52.2 144.8,34.5 
	85.6,44.9 "/>
<polygon class="st1" points="71,127.4 95.1,123.2 101,89.5 131.1,84.2 134,67.5 104,72.8 106.5,58.4 141.7,52.2 144.8,34.5 
	85.6,44.9 "/>
<polygon class="st0" points="12.3,137.9 36.4,133.6 42.3,99.9 72.4,94.6 75.3,77.9 45.3,83.2 47.8,68.8 83,62.6 86.1,44.9 
	26.9,55.3 "/>
<g>
	<defs>
		<rect id="SVGID_1_" x="11.1" y="14.4" width="244" height="124.7"/>
	</defs>
	<clipPath id="SVGID_2_">
		<use xlink:href="#SVGID_1_"  style="overflow:visible;"/>
	</clipPath>
	<polygon class="st2" points="12.3,137.9 36.4,133.6 42.3,99.9 72.4,94.6 75.3,77.9 45.3,83.2 47.8,68.8 83,62.6 86.1,44.9 
		26.9,55.3 	"/>
	<path class="st3" d="M241.4,28.2c-0.4,2.9-0.7,5.8-1.1,8.7c-1.2,8.3-2.5,16.5-3.6,24.8c-0.3,2.1-1.2,3.1-3.8,3.5
		c-5,0.7-9.9,1.6-16,2.6c8.2-13.9,15.9-26.8,23.6-39.7C240.7,28.1,241,28.1,241.4,28.2 M254.8,14.4c-1.1,0.3-1.9,0.4-2.5,0.7
		c-3.1,1.6-6.1,3.2-9,5c-1.1,0.7-2.1,1.7-2.8,2.8c-4.9,8-9.7,16-14.5,24c-8.6,14.3-17,28.7-26,42.9c-4.3,6.8-10.1,12.9-18.8,16.5
		l-1.5,0.1c-3.6,1.6-11.3,2.6-16.8,3.3c-3.8,0.5-5.6-0.5-6.4-3.4c-0.4-1.3-0.4-2.7-0.3-4c0.4-3.2,0.9-6.5,1.5-9.7
		c2-11.8,3.9-23.7,6-35.5c1.1-6.5,2.6-12.9,3.9-19.3c0.7-3.4,2.9-5.8,6.9-7c1-0.3,1.8-0.9,3-1.4c-0.7-0.5-1-1-1.3-1
		c-10.1,1.6-20.3,3.3-30.4,4.9c-0.5,0.1-0.8,0.7-2,1.7c2.4,0.1,3.9,0.1,5.4,0.2c3.4,0.2,4.9,1.4,5,4.2c0.1,1.1-0.1,2.2-0.2,3.2
		c-2.2,13.2-4.4,26.4-6.7,39.6c-1.4,7.9-2.9,15.9-4.3,23.8c-0.8,4-2.9,7.3-8,8.8c-0.8,0.2-1.5,0.9-2.6,1.6c1,0.3,1.6,0.8,2.1,0.7
		c20.2-3.5,34.4-6.3,54.8-9.9c13.1-1.9,17.9-2.3,20.7-3.8c-0.1-0.2-0.2-0.5-0.5-0.6c-0.4-0.2-0.9-0.3-1.3-0.4c-5.8-0.8-7.1-2.2-6-7
		c0.2-0.9,0.5-1.9,0.9-2.7c3.7-6.8,7.5-13.5,11.2-20.3c0.9-1.7,2.4-2.3,4.6-2.6c4.4-0.6,8.7-1.5,13-2.2c1.1-0.2,2.2-0.2,3.5-0.3
		c0.3,0.8,0.5,1,0.4,1.3c-1.1,7.7-2.4,14.8-3.6,22.5c-0.5,3.3-2.9,5.6-6.6,7.2c-1.2,0.5-2.4,1.1-3.5,1.6c0.1,0.3,0.2,0.7,0.3,1
		c1.2,0,2.4,0.3,3.5,0.1c8.9-1.6,17.7-3.2,26.5-4.9c0.6-0.1,1.1-0.7,1.6-1.1c-0.6-0.4-0.8-0.6-1-0.7c-0.6-0.1-1.3-0.1-1.9-0.2
		c-5.2-0.2-6.5-1.2-6.6-5.6c0-1.1,0.1-2.1,0.3-3.2c0.7-5.5,1.6-10.3,2.5-15.7c2.7-17.7,5.4-35.4,8-53.1
		C255.1,16,254.9,15.4,254.8,14.4"/>
</g>
</svg>
